<svg width="70" height="89" viewBox="0 0 70 89" fill="none" xmlns="http://www.w3.org/2000/svg">
<path d="M61.773 0H8.57305C4.27305 0 0.873047 3.4 0.873047 7.6V64.1C0.873047 68.1 3.57305 72.7 6.97305 74.7L28.973 87.4C30.673 88.4 32.773 88.9 35.073 88.9C37.373 88.9 39.573 88.4 41.173 87.4L63.173 74.7C66.573 72.7 69.273 68 69.273 64.1V7.6C69.373 3.4 65.973 0 61.773 0Z" fill="#00AB5E"/>
<mask id="path-2-outside-1_1893_11745" maskUnits="userSpaceOnUse" x="28.9338" y="64.2002" width="14" height="13" fill="black">
<rect fill="white" x="28.9338" y="64.2002" width="14" height="13"/>
<path d="M41.1731 69.3002C41.0731 69.1002 40.8731 68.9002 40.6731 68.9002L37.4731 68.4002L36.0731 65.5002C35.9731 65.3002 35.7731 65.2002 35.5731 65.2002C35.3731 65.2002 35.1731 65.3002 35.0731 65.5002L33.6731 68.4002L30.4731 68.9002C30.2731 68.9002 30.0731 69.1002 29.9731 69.3002C29.8731 69.5002 29.9731 69.8002 30.1731 69.9002L32.4731 72.2002L31.9731 75.4002C31.9731 75.6002 32.0731 75.9002 32.1731 76.0002C32.3731 76.1002 32.5731 76.2002 32.7731 76.0002L35.6731 74.5002L38.5731 76.0002C38.6731 76.0002 38.7731 76.1002 38.8731 76.1002C39.1731 76.1002 39.4731 75.8002 39.4731 75.5002C39.4731 75.4002 39.4731 75.4002 39.4731 75.4002L38.9731 72.2002L41.2731 69.9002C41.1731 69.8002 41.2731 69.5002 41.1731 69.3002Z"/>
</mask>
<path d="M41.1731 69.3002C41.0731 69.1002 40.8731 68.9002 40.6731 68.9002L37.4731 68.4002L36.0731 65.5002C35.9731 65.3002 35.7731 65.2002 35.5731 65.2002C35.3731 65.2002 35.1731 65.3002 35.0731 65.5002L33.6731 68.4002L30.4731 68.9002C30.2731 68.9002 30.0731 69.1002 29.9731 69.3002C29.8731 69.5002 29.9731 69.8002 30.1731 69.9002L32.4731 72.2002L31.9731 75.4002C31.9731 75.6002 32.0731 75.9002 32.1731 76.0002C32.3731 76.1002 32.5731 76.2002 32.7731 76.0002L35.6731 74.5002L38.5731 76.0002C38.6731 76.0002 38.7731 76.1002 38.8731 76.1002C39.1731 76.1002 39.4731 75.8002 39.4731 75.5002C39.4731 75.4002 39.4731 75.4002 39.4731 75.4002L38.9731 72.2002L41.2731 69.9002C41.1731 69.8002 41.2731 69.5002 41.1731 69.3002Z" fill="#FFD400"/>
<path d="M40.6731 68.9002L40.5187 69.8882L40.5954 69.9002H40.6731V68.9002ZM37.4731 68.4002L36.5725 68.8349L36.8005 69.3072L37.3187 69.3882L37.4731 68.4002ZM36.0731 65.5002L36.9737 65.0654L36.9675 65.053L36.0731 65.5002ZM35.0731 65.5002L34.1786 65.0529L34.1725 65.0654L35.0731 65.5002ZM33.6731 68.4002L33.8274 69.3882L34.3456 69.3072L34.5736 68.8349L33.6731 68.4002ZM30.4731 68.9002V69.9002H30.5507L30.6274 69.8882L30.4731 68.9002ZM30.1731 69.9002L30.8802 69.1931L30.7654 69.0783L30.6203 69.0058L30.1731 69.9002ZM32.4731 72.2002L33.4611 72.3546L33.5395 71.8524L33.1802 71.4931L32.4731 72.2002ZM31.9731 75.4002L30.9851 75.2458L30.9731 75.3225V75.4002H31.9731ZM32.1731 76.0002L31.466 76.7073L31.5807 76.8221L31.7259 76.8946L32.1731 76.0002ZM32.7731 76.0002L32.3136 75.112L32.1757 75.1833L32.066 75.2931L32.7731 76.0002ZM35.6731 74.5002L36.1325 73.612L35.6731 73.3743L35.2136 73.612L35.6731 74.5002ZM38.5731 76.0002L38.1136 76.8884L38.3298 77.0002H38.5731V76.0002ZM39.4731 75.4002L38.4851 75.5546L40.4731 75.4002H39.4731ZM38.9731 72.2002L38.266 71.4931L37.9066 71.8524L37.9851 72.3546L38.9731 72.2002ZM41.2731 69.9002L41.9802 70.6073L42.6873 69.9002L41.9802 69.1931L41.2731 69.9002ZM42.0675 68.853C41.9634 68.6448 41.809 68.4353 41.6114 68.2659C41.4251 68.1063 41.1017 67.9002 40.6731 67.9002V69.9002C40.5553 69.9002 40.465 69.8708 40.4099 69.8459C40.3557 69.8215 40.3233 69.7961 40.3098 69.7845C40.2872 69.7651 40.2828 69.7557 40.2786 69.7474L42.0675 68.853ZM40.8274 67.9122L37.6274 67.4122L37.3187 69.3882L40.5187 69.8882L40.8274 67.9122ZM38.3736 67.9655L36.9736 65.0655L35.1725 65.9349L36.5725 68.8349L38.3736 67.9655ZM36.9675 65.053C36.6747 64.4673 36.0964 64.2002 35.5731 64.2002V66.2002C35.4497 66.2002 35.2715 66.1331 35.1786 65.9474L36.9675 65.053ZM35.5731 64.2002C35.0497 64.2002 34.4715 64.4673 34.1786 65.053L35.9675 65.9474C35.8747 66.1331 35.6964 66.2002 35.5731 66.2002V64.2002ZM34.1725 65.0654L32.7725 67.9655L34.5736 68.8349L35.9736 65.9349L34.1725 65.0654ZM33.5187 67.4122L30.3187 67.9122L30.6274 69.8882L33.8274 69.3882L33.5187 67.4122ZM30.4731 67.9002C30.0445 67.9002 29.721 68.1063 29.5348 68.2659C29.3372 68.4353 29.1828 68.6448 29.0786 68.853L30.8675 69.7474C30.8634 69.7557 30.859 69.7651 30.8364 69.7845C30.8228 69.7961 30.7905 69.8215 30.7362 69.8459C30.6811 69.8708 30.5909 69.9002 30.4731 69.9002V67.9002ZM29.0786 68.853C28.8832 69.2439 28.9116 69.6531 29.0119 69.9539C29.1121 70.2547 29.335 70.5992 29.7259 70.7946L30.6203 69.0058C30.8112 69.1012 30.884 69.2457 30.9093 69.3215C30.9345 69.3973 30.9629 69.5565 30.8675 69.7474L29.0786 68.853ZM29.466 70.6073L31.766 72.9073L33.1802 71.4931L30.8802 69.1931L29.466 70.6073ZM31.4851 72.0458L30.9851 75.2458L32.9611 75.5546L33.4611 72.3546L31.4851 72.0458ZM30.9731 75.4002C30.9731 75.6401 31.0274 75.8756 31.0869 76.0539C31.1352 76.1987 31.2443 76.4857 31.466 76.7073L32.8802 75.2931C32.9239 75.3369 32.9509 75.3741 32.9637 75.3931C32.9776 75.4136 32.9852 75.4279 32.9878 75.433C32.9926 75.4421 32.9899 75.4384 32.9843 75.4215C32.979 75.4058 32.975 75.3899 32.9728 75.3784C32.9702 75.3643 32.9731 75.3722 32.9731 75.4002H30.9731ZM31.7259 76.8946C31.7864 76.9249 32.0464 77.0672 32.349 77.105C32.7561 77.1559 33.1626 77.0249 33.4802 76.7073L32.066 75.2931C32.1064 75.2526 32.1829 75.1925 32.298 75.1529C32.4141 75.113 32.5207 75.1109 32.5971 75.1204C32.6653 75.1289 32.7046 75.1461 32.6994 75.144C32.6918 75.1409 32.677 75.1341 32.6203 75.1058L31.7259 76.8946ZM33.2325 76.8884L36.1325 75.3884L35.2136 73.612L32.3136 75.112L33.2325 76.8884ZM35.2136 75.3884L38.1136 76.8884L39.0325 75.112L36.1325 73.612L35.2136 75.3884ZM38.5731 77.0002C38.4343 77.0002 38.3341 76.9661 38.2969 76.9522C38.2641 76.9398 38.2414 76.9274 38.2759 76.9446C38.2914 76.9524 38.3641 76.9898 38.4469 77.0209C38.5341 77.0536 38.6843 77.1002 38.8731 77.1002V75.1002C39.0119 75.1002 39.1121 75.1343 39.1492 75.1482C39.1821 75.1606 39.2048 75.173 39.1703 75.1558C39.1548 75.148 39.0821 75.1106 38.9992 75.0795C38.9121 75.0468 38.7619 75.0002 38.5731 75.0002V77.0002ZM38.8731 77.1002C39.3483 77.1002 39.7398 76.8727 39.9927 76.6198C40.2455 76.367 40.4731 75.9754 40.4731 75.5002H38.4731C38.4731 75.325 38.5506 75.2334 38.5785 75.2056C38.6063 75.1777 38.6978 75.1002 38.8731 75.1002V77.1002ZM40.4731 75.5002C40.4731 75.5 40.4731 75.4998 40.4731 75.4996C40.4731 75.4994 40.4731 75.4992 40.4731 75.499C40.4731 75.4988 40.4731 75.4986 40.4731 75.4985C40.4731 75.4983 40.4731 75.4981 40.4731 75.4979C40.4731 75.4977 40.4731 75.4975 40.4731 75.4973C40.4731 75.4971 40.4731 75.4969 40.4731 75.4967C40.4731 75.4965 40.4731 75.4963 40.4731 75.4962C40.4731 75.496 40.4731 75.4958 40.4731 75.4956C40.4731 75.4954 40.4731 75.4952 40.4731 75.495C40.4731 75.4948 40.4731 75.4946 40.4731 75.4945C40.4731 75.4943 40.4731 75.4941 40.4731 75.4939C40.4731 75.4937 40.4731 75.4935 40.4731 75.4933C40.4731 75.4931 40.4731 75.493 40.4731 75.4928C40.4731 75.4926 40.4731 75.4924 40.4731 75.4922C40.4731 75.492 40.4731 75.4918 40.4731 75.4917C40.4731 75.4915 40.4731 75.4913 40.4731 75.4911C40.4731 75.4909 40.4731 75.4907 40.4731 75.4906C40.4731 75.4904 40.4731 75.4902 40.4731 75.49C40.4731 75.4898 40.4731 75.4897 40.4731 75.4895C40.4731 75.4893 40.4731 75.4891 40.4731 75.4889C40.4731 75.4888 40.4731 75.4886 40.4731 75.4884C40.4731 75.4882 40.4731 75.488 40.4731 75.4879C40.4731 75.4877 40.4731 75.4875 40.4731 75.4873C40.4731 75.4871 40.4731 75.487 40.4731 75.4868C40.4731 75.4866 40.4731 75.4864 40.4731 75.4863C40.4731 75.4861 40.4731 75.4859 40.4731 75.4857C40.4731 75.4855 40.4731 75.4854 40.4731 75.4852C40.4731 75.485 40.4731 75.4848 40.4731 75.4847C40.4731 75.4845 40.4731 75.4843 40.4731 75.4842C40.4731 75.484 40.4731 75.4838 40.4731 75.4836C40.4731 75.4835 40.4731 75.4833 40.4731 75.4831C40.4731 75.4829 40.4731 75.4828 40.4731 75.4826C40.4731 75.4824 40.4731 75.4823 40.4731 75.4821C40.4731 75.4819 40.4731 75.4817 40.4731 75.4816C40.4731 75.4814 40.4731 75.4812 40.4731 75.4811C40.4731 75.4809 40.4731 75.4807 40.4731 75.4806C40.4731 75.4804 40.4731 75.4802 40.4731 75.48C40.4731 75.4799 40.4731 75.4797 40.4731 75.4795C40.4731 75.4794 40.4731 75.4792 40.4731 75.479C40.4731 75.4789 40.4731 75.4787 40.4731 75.4785C40.4731 75.4784 40.4731 75.4782 40.4731 75.478C40.4731 75.4779 40.4731 75.4777 40.4731 75.4776C40.4731 75.4774 40.4731 75.4772 40.4731 75.4771C40.4731 75.4769 40.4731 75.4767 40.4731 75.4766C40.4731 75.4764 40.4731 75.4762 40.4731 75.4761C40.4731 75.4759 40.4731 75.4758 40.4731 75.4756C40.4731 75.4754 40.4731 75.4753 40.4731 75.4751C40.4731 75.4749 40.4731 75.4748 40.4731 75.4746C40.4731 75.4745 40.4731 75.4743 40.4731 75.4741C40.4731 75.474 40.4731 75.4738 40.4731 75.4737C40.4731 75.4735 40.4731 75.4734 40.4731 75.4732C40.4731 75.473 40.4731 75.4729 40.4731 75.4727C40.4731 75.4726 40.4731 75.4724 40.4731 75.4722C40.4731 75.4721 40.4731 75.4719 40.4731 75.4718C40.4731 75.4716 40.4731 75.4715 40.4731 75.4713C40.4731 75.4712 40.4731 75.471 40.4731 75.4708C40.4731 75.4707 40.4731 75.4705 40.4731 75.4704C40.4731 75.4702 40.4731 75.4701 40.4731 75.4699C40.4731 75.4698 40.4731 75.4696 40.4731 75.4695C40.4731 75.4693 40.4731 75.4692 40.4731 75.469C40.4731 75.4688 40.4731 75.4687 40.4731 75.4685C40.4731 75.4684 40.4731 75.4682 40.4731 75.4681C40.4731 75.4679 40.4731 75.4678 40.4731 75.4676C40.4731 75.4675 40.4731 75.4673 40.4731 75.4672C40.4731 75.467 40.4731 75.4669 40.4731 75.4667C40.4731 75.4666 40.4731 75.4664 40.4731 75.4663C40.4731 75.4661 40.4731 75.466 40.4731 75.4659C40.4731 75.4657 40.4731 75.4656 40.4731 75.4654C40.4731 75.4653 40.4731 75.4651 40.4731 75.465C40.4731 75.4648 40.4731 75.4647 40.4731 75.4645C40.4731 75.4644 40.4731 75.4642 40.4731 75.4641C40.4731 75.464 40.4731 75.4638 40.4731 75.4637C40.4731 75.4635 40.4731 75.4634 40.4731 75.4632C40.4731 75.4631 40.4731 75.4629 40.4731 75.4628C40.4731 75.4627 40.4731 75.4625 40.4731 75.4624C40.4731 75.4622 40.4731 75.4621 40.4731 75.462C40.4731 75.4618 40.4731 75.4617 40.4731 75.4615C40.4731 75.4614 40.4731 75.4612 40.4731 75.4611C40.4731 75.461 40.4731 75.4608 40.4731 75.4607C40.4731 75.4605 40.4731 75.4604 40.4731 75.4603C40.4731 75.4601 40.4731 75.46 40.4731 75.4599C40.4731 75.4597 40.4731 75.4596 40.4731 75.4594C40.4731 75.4593 40.4731 75.4592 40.4731 75.459C40.4731 75.4589 40.4731 75.4587 40.4731 75.4586C40.4731 75.4585 40.4731 75.4583 40.4731 75.4582C40.4731 75.4581 40.4731 75.4579 40.4731 75.4578C40.4731 75.4577 40.4731 75.4575 40.4731 75.4574C40.4731 75.4573 40.4731 75.4571 40.4731 75.457C40.4731 75.4569 40.4731 75.4567 40.4731 75.4566C40.4731 75.4565 40.4731 75.4563 40.4731 75.4562C40.4731 75.4561 40.4731 75.4559 40.4731 75.4558C40.4731 75.4557 40.4731 75.4555 40.4731 75.4554C40.4731 75.4553 40.4731 75.4551 40.4731 75.455C40.4731 75.4549 40.4731 75.4547 40.4731 75.4546C40.4731 75.4545 40.4731 75.4544 40.4731 75.4542C40.4731 75.4541 40.4731 75.454 40.4731 75.4538C40.4731 75.4537 40.4731 75.4536 40.4731 75.4535C40.4731 75.4533 40.4731 75.4532 40.4731 75.4531C40.4731 75.4529 40.4731 75.4528 40.4731 75.4527C40.4731 75.4526 40.4731 75.4524 40.4731 75.4523C40.4731 75.4522 40.4731 75.4521 40.4731 75.4519C40.4731 75.4518 40.4731 75.4517 40.4731 75.4515C40.4731 75.4514 40.4731 75.4513 40.4731 75.4512C40.4731 75.451 40.4731 75.4509 40.4731 75.4508C40.4731 75.4507 40.4731 75.4506 40.4731 75.4504C40.4731 75.4503 40.4731 75.4502 40.4731 75.4501C40.4731 75.4499 40.4731 75.4498 40.4731 75.4497C40.4731 75.4496 40.4731 75.4494 40.4731 75.4493C40.4731 75.4492 40.4731 75.4491 40.4731 75.449C40.4731 75.4488 40.4731 75.4487 40.4731 75.4486C40.4731 75.4485 40.4731 75.4484 40.4731 75.4482C40.4731 75.4481 40.4731 75.448 40.4731 75.4479C40.4731 75.4478 40.4731 75.4476 40.4731 75.4475C40.4731 75.4474 40.4731 75.4473 40.4731 75.4472C40.4731 75.4471 40.4731 75.4469 40.4731 75.4468C40.4731 75.4467 40.4731 75.4466 40.4731 75.4465C40.4731 75.4463 40.4731 75.4462 40.4731 75.4461C40.4731 75.446 40.4731 75.4459 40.4731 75.4458C40.4731 75.4457 40.4731 75.4455 40.4731 75.4454C40.4731 75.4453 40.4731 75.4452 40.4731 75.4451C40.4731 75.445 40.4731 75.4448 40.4731 75.4447C40.4731 75.4446 40.4731 75.4445 40.4731 75.4444C40.4731 75.4443 40.4731 75.4442 40.4731 75.4441C40.4731 75.4439 40.4731 75.4438 40.4731 75.4437C40.4731 75.4436 40.4731 75.4435 40.4731 75.4434C40.4731 75.4433 40.4731 75.4432 40.4731 75.443C40.4731 75.4429 40.4731 75.4428 40.4731 75.4427C40.4731 75.4426 40.4731 75.4425 40.4731 75.4424C40.4731 75.4423 40.4731 75.4422 40.4731 75.4421C40.4731 75.4419 40.4731 75.4418 40.4731 75.4417C40.4731 75.4416 40.4731 75.4415 40.4731 75.4414C40.4731 75.4413 40.4731 75.4412 40.4731 75.4411C40.4731 75.441 40.4731 75.4409 40.4731 75.4408C40.4731 75.4407 40.4731 75.4405 40.4731 75.4404C40.4731 75.4403 40.4731 75.4402 40.4731 75.4401C40.4731 75.44 40.4731 75.4399 40.4731 75.4398C40.4731 75.4397 40.4731 75.4396 40.4731 75.4395C40.4731 75.4394 40.4731 75.4393 40.4731 75.4392C40.4731 75.4391 40.4731 75.439 40.4731 75.4389C40.4731 75.4388 40.4731 75.4387 40.4731 75.4386C40.4731 75.4384 40.4731 75.4383 40.4731 75.4382C40.4731 75.4381 40.4731 75.438 40.4731 75.4379C40.4731 75.4378 40.4731 75.4377 40.4731 75.4376C40.4731 75.4375 40.4731 75.4374 40.4731 75.4373C40.4731 75.4372 40.4731 75.4371 40.4731 75.437C40.4731 75.4369 40.4731 75.4368 40.4731 75.4367C40.4731 75.4366 40.4731 75.4365 40.4731 75.4364C40.4731 75.4363 40.4731 75.4362 40.4731 75.4361C40.4731 75.436 40.4731 75.4359 40.4731 75.4358C40.4731 75.4357 40.4731 75.4356 40.4731 75.4355C40.4731 75.4354 40.4731 75.4353 40.4731 75.4353C40.4731 75.4352 40.4731 75.4351 40.4731 75.435C40.4731 75.4349 40.4731 75.4348 40.4731 75.4347C40.4731 75.4346 40.4731 75.4345 40.4731 75.4344C40.4731 75.4343 40.4731 75.4342 40.4731 75.4341C40.4731 75.434 40.4731 75.4339 40.4731 75.4338C40.4731 75.4337 40.4731 75.4336 40.4731 75.4335C40.4731 75.4334 40.4731 75.4333 40.4731 75.4333C40.4731 75.4332 40.4731 75.4331 40.4731 75.433C40.4731 75.4329 40.4731 75.4328 40.4731 75.4327C40.4731 75.4326 40.4731 75.4325 40.4731 75.4324C40.4731 75.4323 40.4731 75.4322 40.4731 75.4321C40.4731 75.4321 40.4731 75.432 40.4731 75.4319C40.4731 75.4318 40.4731 75.4317 40.4731 75.4316C40.4731 75.4315 40.4731 75.4314 40.4731 75.4313C40.4731 75.4312 40.4731 75.4311 40.4731 75.4311C40.4731 75.431 40.4731 75.4309 40.4731 75.4308C40.4731 75.4307 40.4731 75.4306 40.4731 75.4305C40.4731 75.4304 40.4731 75.4304 40.4731 75.4303C40.4731 75.4302 40.4731 75.4301 40.4731 75.43C40.4731 75.4299 40.4731 75.4298 40.4731 75.4297C40.4731 75.4297 40.4731 75.4296 40.4731 75.4295C40.4731 75.4294 40.4731 75.4293 40.4731 75.4292C40.4731 75.4291 40.4731 75.4291 40.4731 75.429C40.4731 75.4289 40.4731 75.4288 40.4731 75.4287C40.4731 75.4286 40.4731 75.4285 40.4731 75.4285C40.4731 75.4284 40.4731 75.4283 40.4731 75.4282C40.4731 75.4281 40.4731 75.428 40.4731 75.428C40.4731 75.4279 40.4731 75.4278 40.4731 75.4277C40.4731 75.4276 40.4731 75.4275 40.4731 75.4275C40.4731 75.4274 40.4731 75.4273 40.4731 75.4272C40.4731 75.4271 40.4731 75.4271 40.4731 75.427C40.4731 75.4269 40.4731 75.4268 40.4731 75.4267C40.4731 75.4267 40.4731 75.4266 40.4731 75.4265C40.4731 75.4264 40.4731 75.4263 40.4731 75.4263C40.4731 75.4262 40.4731 75.4261 40.4731 75.426C40.4731 75.4259 40.4731 75.4259 40.4731 75.4258C40.4731 75.4257 40.4731 75.4256 40.4731 75.4255C40.4731 75.4255 40.4731 75.4254 40.4731 75.4253C40.4731 75.4252 40.4731 75.4252 40.4731 75.4251C40.4731 75.425 40.4731 75.4249 40.4731 75.4248C40.4731 75.4248 40.4731 75.4247 40.4731 75.4246C40.4731 75.4245 40.4731 75.4245 40.4731 75.4244C40.4731 75.4243 40.4731 75.4242 40.4731 75.4242C40.4731 75.4241 40.4731 75.424 40.4731 75.4239C40.4731 75.4239 40.4731 75.4238 40.4731 75.4237C40.4731 75.4236 40.4731 75.4236 40.4731 75.4235C40.4731 75.4234 40.4731 75.4233 40.4731 75.4233C40.4731 75.4232 40.4731 75.4231 40.4731 75.423C40.4731 75.423 40.4731 75.4229 40.4731 75.4228C40.4731 75.4228 40.4731 75.4227 40.4731 75.4226C40.4731 75.4225 40.4731 75.4225 40.4731 75.4224C40.4731 75.4223 40.4731 75.4223 40.4731 75.4222C40.4731 75.4221 40.4731 75.422 40.4731 75.422C40.4731 75.4219 40.4731 75.4218 40.4731 75.4218C40.4731 75.4217 40.4731 75.4216 40.4731 75.4215C40.4731 75.4215 40.4731 75.4214 40.4731 75.4213C40.4731 75.4213 40.4731 75.4212 40.4731 75.4211C40.4731 75.4211 40.4731 75.421 40.4731 75.4209C40.4731 75.4209 40.4731 75.4208 40.4731 75.4207C40.4731 75.4207 40.4731 75.4206 40.4731 75.4205C40.4731 75.4205 40.4731 75.4204 40.4731 75.4203C40.4731 75.4202 40.4731 75.4202 40.4731 75.4201C40.4731 75.42 40.4731 75.42 40.4731 75.4199C40.4731 75.4198 40.4731 75.4198 40.4731 75.4197C40.4731 75.4197 40.4731 75.4196 40.4731 75.4195C40.4731 75.4195 40.4731 75.4194 40.4731 75.4193C40.4731 75.4193 40.4731 75.4192 40.4731 75.4191C40.4731 75.4191 40.4731 75.419 40.4731 75.4189C40.4731 75.4189 40.4731 75.4188 40.4731 75.4187C40.4731 75.4187 40.4731 75.4186 40.4731 75.4186C40.4731 75.4185 40.4731 75.4184 40.4731 75.4184C40.4731 75.4183 40.4731 75.4182 40.4731 75.4182C40.4731 75.4181 40.4731 75.4181 40.4731 75.418C40.4731 75.4179 40.4731 75.4179 40.4731 75.4178C40.4731 75.4178 40.4731 75.4177 40.4731 75.4176C40.4731 75.4176 40.4731 75.4175 40.4731 75.4174C40.4731 75.4174 40.4731 75.4173 40.4731 75.4173C40.4731 75.4172 40.4731 75.4171 40.4731 75.4171C40.4731 75.417 40.4731 75.417 40.4731 75.4169C40.4731 75.4168 40.4731 75.4168 40.4731 75.4167C40.4731 75.4167 40.4731 75.4166 40.4731 75.4166C40.4731 75.4165 40.4731 75.4164 40.4731 75.4164C40.4731 75.4163 40.4731 75.4163 40.4731 75.4162C40.4731 75.4161 40.4731 75.4161 40.4731 75.416C40.4731 75.416 40.4731 75.4159 40.4731 75.4159C40.4731 75.4158 40.4731 75.4158 40.4731 75.4157C40.4731 75.4156 40.4731 75.4156 40.4731 75.4155C40.4731 75.4155 40.4731 75.4154 40.4731 75.4154C40.4731 75.4153 40.4731 75.4152 40.4731 75.4152C40.4731 75.4151 40.4731 75.4151 40.4731 75.415C40.4731 75.415 40.4731 75.4149 40.4731 75.4149C40.4731 75.4148 40.4731 75.4148 40.4731 75.4147C40.4731 75.4146 40.4731 75.4146 40.4731 75.4145C40.4731 75.4145 40.4731 75.4144 40.4731 75.4144C40.4731 75.4143 40.4731 75.4143 40.4731 75.4142C40.4731 75.4142 40.4731 75.4141 40.4731 75.4141C40.4731 75.414 40.4731 75.414 40.4731 75.4139C40.4731 75.4139 40.4731 75.4138 40.4731 75.4138C40.4731 75.4137 40.4731 75.4136 40.4731 75.4136C40.4731 75.4135 40.4731 75.4135 40.4731 75.4134C40.4731 75.4134 40.4731 75.4133 40.4731 75.4133C40.4731 75.4132 40.4731 75.4132 40.4731 75.4131C40.4731 75.4131 40.4731 75.413 40.4731 75.413C40.4731 75.4129 40.4731 75.4129 40.4731 75.4128C40.4731 75.4128 40.4731 75.4127 40.4731 75.4127C40.4731 75.4127 40.4731 75.4126 40.4731 75.4126C40.4731 75.4125 40.4731 75.4125 40.4731 75.4124C40.4731 75.4124 40.4731 75.4123 40.4731 75.4123C40.4731 75.4122 40.4731 75.4122 40.4731 75.4121C40.4731 75.4121 40.4731 75.412 40.4731 75.412C40.4731 75.4119 40.4731 75.4119 40.4731 75.4118C40.4731 75.4118 40.4731 75.4117 40.4731 75.4117C40.4731 75.4117 40.4731 75.4116 40.4731 75.4116C40.4731 75.4115 40.4731 75.4115 40.4731 75.4114C40.4731 75.4114 40.4731 75.4113 40.4731 75.4113C40.4731 75.4112 40.4731 75.4112 40.4731 75.4112C40.4731 75.4111 40.4731 75.4111 40.4731 75.411C40.4731 75.411 40.4731 75.4109 40.4731 75.4109C40.4731 75.4108 40.4731 75.4108 40.4731 75.4108C40.4731 75.4107 40.4731 75.4107 40.4731 75.4106C40.4731 75.4106 40.4731 75.4105 40.4731 75.4105C40.4731 75.4105 40.4731 75.4104 40.4731 75.4104C40.4731 75.4103 40.4731 75.4103 40.4731 75.4102C40.4731 75.4102 40.4731 75.4102 40.4731 75.4101C40.4731 75.4101 40.4731 75.41 40.4731 75.41C40.4731 75.41 40.4731 75.4099 40.4731 75.4099C40.4731 75.4098 40.4731 75.4098 40.4731 75.4097C40.4731 75.4097 40.4731 75.4097 40.4731 75.4096C40.4731 75.4096 40.4731 75.4095 40.4731 75.4095C40.4731 75.4095 40.4731 75.4094 40.4731 75.4094C40.4731 75.4093 40.4731 75.4093 40.4731 75.4093C40.4731 75.4092 40.4731 75.4092 40.4731 75.4091C40.4731 75.4091 40.4731 75.4091 40.4731 75.409C40.4731 75.409 40.4731 75.409 40.4731 75.4089C40.4731 75.4089 40.4731 75.4088 40.4731 75.4088C40.4731 75.4088 40.4731 75.4087 40.4731 75.4087C40.4731 75.4086 40.4731 75.4086 40.4731 75.4086C40.4731 75.4085 40.4731 75.4085 40.4731 75.4085C40.4731 75.4084 40.4731 75.4084 40.4731 75.4084C40.4731 75.4083 40.4731 75.4083 40.4731 75.4082C40.4731 75.4082 40.4731 75.4082 40.4731 75.4081C40.4731 75.4081 40.4731 75.4081 40.4731 75.408C40.4731 75.408 40.4731 75.408 40.4731 75.4079C40.4731 75.4079 40.4731 75.4078 40.4731 75.4078C40.4731 75.4078 40.4731 75.4077 40.4731 75.4077C40.4731 75.4077 40.4731 75.4076 40.4731 75.4076C40.4731 75.4076 40.4731 75.4075 40.4731 75.4075C40.4731 75.4075 40.4731 75.4074 40.4731 75.4074C40.4731 75.4074 40.4731 75.4073 40.4731 75.4073C40.4731 75.4073 40.4731 75.4072 40.4731 75.4072C40.4731 75.4072 40.4731 75.4071 40.4731 75.4071C40.4731 75.4071 40.4731 75.407 40.4731 75.407C40.4731 75.407 40.4731 75.4069 40.4731 75.4069C40.4731 75.4069 40.4731 75.4068 40.4731 75.4068C40.4731 75.4068 40.4731 75.4067 40.4731 75.4067C40.4731 75.4067 40.4731 75.4066 40.4731 75.4066C40.4731 75.4066 40.4731 75.4066 40.4731 75.4065C40.4731 75.4065 40.4731 75.4065 40.4731 75.4064C40.4731 75.4064 40.4731 75.4064 40.4731 75.4063C40.4731 75.4063 40.4731 75.4063 40.4731 75.4062C40.4731 75.4062 40.4731 75.4062 40.4731 75.4062C40.4731 75.4061 40.4731 75.4061 40.4731 75.4061C40.4731 75.406 40.4731 75.406 40.4731 75.406C40.4731 75.406 40.4731 75.4059 40.4731 75.4059C40.4731 75.4059 40.4731 75.4058 40.4731 75.4058C40.4731 75.4058 40.4731 75.4058 40.4731 75.4057C40.4731 75.4057 40.4731 75.4057 40.4731 75.4056C40.4731 75.4056 40.4731 75.4056 40.4731 75.4056C40.4731 75.4055 40.4731 75.4055 40.4731 75.4055C40.4731 75.4054 40.4731 75.4054 40.4731 75.4054C40.4731 75.4054 40.4731 75.4053 40.4731 75.4053C40.4731 75.4053 40.4731 75.4053 40.4731 75.4052C40.4731 75.4052 40.4731 75.4052 40.4731 75.4052C40.4731 75.4051 40.4731 75.4051 40.4731 75.4051C40.4731 75.405 40.4731 75.405 40.4731 75.405C40.4731 75.405 40.4731 75.4049 40.4731 75.4049C40.4731 75.4049 40.4731 75.4049 40.4731 75.4048C40.4731 75.4048 40.4731 75.4048 40.4731 75.4048C40.4731 75.4047 40.4731 75.4047 40.4731 75.4047C40.4731 75.4047 40.4731 75.4046 40.4731 75.4046C40.4731 75.4046 40.4731 75.4046 40.4731 75.4045C40.4731 75.4045 40.4731 75.4045 40.4731 75.4045C40.4731 75.4044 40.4731 75.4044 40.4731 75.4044C40.4731 75.4044 40.4731 75.4044 40.4731 75.4043C40.4731 75.4043 40.4731 75.4043 40.4731 75.4043C40.4731 75.4042 40.4731 75.4042 40.4731 75.4042C40.4731 75.4042 40.4731 75.4041 40.4731 75.4041C40.4731 75.4041 40.4731 75.4041 40.4731 75.4041C40.4731 75.404 40.4731 75.404 40.4731 75.404C40.4731 75.404 40.4731 75.4039 40.4731 75.4039C40.4731 75.4039 40.4731 75.4039 40.4731 75.4039C40.4731 75.4038 40.4731 75.4038 40.4731 75.4038C40.4731 75.4038 40.4731 75.4038 40.4731 75.4037C40.4731 75.4037 40.4731 75.4037 40.4731 75.4037C40.4731 75.4036 40.4731 75.4036 40.4731 75.4036C40.4731 75.4036 40.4731 75.4036 40.4731 75.4035C40.4731 75.4035 40.4731 75.4035 40.4731 75.4035C40.4731 75.4035 40.4731 75.4034 40.4731 75.4034C40.4731 75.4034 40.4731 75.4034 40.4731 75.4034C40.4731 75.4033 40.4731 75.4033 40.4731 75.4033C40.4731 75.4033 40.4731 75.4033 40.4731 75.4033C40.4731 75.4032 40.4731 75.4032 40.4731 75.4032C40.4731 75.4032 40.4731 75.4032 40.4731 75.4031C40.4731 75.4031 40.4731 75.4031 40.4731 75.4031C40.4731 75.4031 40.4731 75.403 40.4731 75.403C40.4731 75.403 40.4731 75.403 40.4731 75.403C40.4731 75.403 40.4731 75.4029 40.4731 75.4029C40.4731 75.4029 40.4731 75.4029 40.4731 75.4029C40.4731 75.4029 40.4731 75.4028 40.4731 75.4028C40.4731 75.4028 40.4731 75.4028 40.4731 75.4028C40.4731 75.4027 40.4731 75.4027 40.4731 75.4027C40.4731 75.4027 40.4731 75.4027 40.4731 75.4027C40.4731 75.4026 40.4731 75.4026 40.4731 75.4026C40.4731 75.4026 40.4731 75.4026 40.4731 75.4026C40.4731 75.4025 40.4731 75.4025 40.4731 75.4025C40.4731 75.4025 40.4731 75.4025 40.4731 75.4025C40.4731 75.4025 40.4731 75.4024 40.4731 75.4024C40.4731 75.4024 40.4731 75.4024 40.4731 75.4024C40.4731 75.4024 40.4731 75.4023 40.4731 75.4023C40.4731 75.4023 40.4731 75.4023 40.4731 75.4023C40.4731 75.4023 40.4731 75.4023 40.4731 75.4022C40.4731 75.4022 40.4731 75.4022 40.4731 75.4022C40.4731 75.4022 40.4731 75.4022 40.4731 75.4022C40.4731 75.4021 40.4731 75.4021 40.4731 75.4021C40.4731 75.4021 40.4731 75.4021 40.4731 75.4021C40.4731 75.4021 40.4731 75.402 40.4731 75.402C40.4731 75.402 40.4731 75.402 40.4731 75.402C40.4731 75.402 40.4731 75.402 40.4731 75.402C40.4731 75.4019 40.4731 75.4019 40.4731 75.4019C40.4731 75.4019 40.4731 75.4019 40.4731 75.4019C40.4731 75.4019 40.4731 75.4018 40.4731 75.4018C40.4731 75.4018 40.4731 75.4018 40.4731 75.4018C40.4731 75.4018 40.4731 75.4018 40.4731 75.4018C40.4731 75.4017 40.4731 75.4017 40.4731 75.4017C40.4731 75.4017 40.4731 75.4017 40.4731 75.4017C40.4731 75.4017 40.4731 75.4017 40.4731 75.4017C40.4731 75.4016 40.4731 75.4016 40.4731 75.4016C40.4731 75.4016 40.4731 75.4016 40.4731 75.4016C40.4731 75.4016 40.4731 75.4016 40.4731 75.4016C40.4731 75.4015 40.4731 75.4015 40.4731 75.4015C40.4731 75.4015 40.4731 75.4015 40.4731 75.4015C40.4731 75.4015 40.4731 75.4015 40.4731 75.4015C40.4731 75.4014 40.4731 75.4014 40.4731 75.4014C40.4731 75.4014 40.4731 75.4014 40.4731 75.4014C40.4731 75.4014 40.4731 75.4014 40.4731 75.4014C40.4731 75.4014 40.4731 75.4013 40.4731 75.4013C40.4731 75.4013 40.4731 75.4013 40.4731 75.4013C40.4731 75.4013 40.4731 75.4013 40.4731 75.4013C40.4731 75.4013 40.4731 75.4013 40.4731 75.4012C40.4731 75.4012 40.4731 75.4012 40.4731 75.4012C40.4731 75.4012 40.4731 75.4012 40.4731 75.4012C40.4731 75.4012 40.4731 75.4012 40.4731 75.4012C40.4731 75.4012 40.4731 75.4011 40.4731 75.4011C40.4731 75.4011 40.4731 75.4011 40.4731 75.4011C40.4731 75.4011 40.4731 75.4011 40.4731 75.4011C40.4731 75.4011 40.4731 75.4011 40.4731 75.4011C40.4731 75.4011 40.4731 75.401 40.4731 75.401C40.4731 75.401 40.4731 75.401 40.4731 75.401C40.4731 75.401 40.4731 75.401 40.4731 75.401C40.4731 75.401 40.4731 75.401 40.4731 75.401C40.4731 75.401 40.4731 75.401 40.4731 75.4009C40.4731 75.4009 40.4731 75.4009 40.4731 75.4009C40.4731 75.4009 40.4731 75.4009 40.4731 75.4009C40.4731 75.4009 40.4731 75.4009 40.4731 75.4009C40.4731 75.4009 40.4731 75.4009 40.4731 75.4009C40.4731 75.4009 40.4731 75.4008 40.4731 75.4008C40.4731 75.4008 40.4731 75.4008 40.4731 75.4008C40.4731 75.4008 40.4731 75.4008 40.4731 75.4008C40.4731 75.4008 40.4731 75.4008 40.4731 75.4008C40.4731 75.4008 40.4731 75.4008 40.4731 75.4008C40.4731 75.4008 40.4731 75.4007 40.4731 75.4007C40.4731 75.4007 40.4731 75.4007 40.4731 75.4007C40.4731 75.4007 40.4731 75.4007 40.4731 75.4007C40.4731 75.4007 40.4731 75.4007 40.4731 75.4007C40.4731 75.4007 40.4731 75.4007 40.4731 75.4007C40.4731 75.4007 40.4731 75.4007 40.4731 75.4007C40.4731 75.4007 40.4731 75.4006 40.4731 75.4006C40.4731 75.4006 40.4731 75.4006 40.4731 75.4006C40.4731 75.4006 40.4731 75.4006 40.4731 75.4006C40.4731 75.4006 40.4731 75.4006 40.4731 75.4006C40.4731 75.4006 40.4731 75.4006 40.4731 75.4006C40.4731 75.4006 40.4731 75.4006 40.4731 75.4006C40.4731 75.4006 40.4731 75.4006 40.4731 75.4006C40.4731 75.4005 40.4731 75.4005 40.4731 75.4005C40.4731 75.4005 40.4731 75.4005 40.4731 75.4005C40.4731 75.4005 40.4731 75.4005 40.4731 75.4005C40.4731 75.4005 40.4731 75.4005 40.4731 75.4005C40.4731 75.4005 40.4731 75.4005 40.4731 75.4005C40.4731 75.4005 40.4731 75.4005 40.4731 75.4005C40.4731 75.4005 40.4731 75.4005 40.4731 75.4005C40.4731 75.4005 40.4731 75.4005 40.4731 75.4005C40.4731 75.4005 40.4731 75.4004 40.4731 75.4004C40.4731 75.4004 40.4731 75.4004 40.4731 75.4004C40.4731 75.4004 40.4731 75.4004 40.4731 75.4004C40.4731 75.4004 40.4731 75.4004 40.4731 75.4004C40.4731 75.4004 40.4731 75.4004 40.4731 75.4004C40.4731 75.4004 40.4731 75.4004 40.4731 75.4004C40.4731 75.4004 40.4731 75.4004 40.4731 75.4004C40.4731 75.4004 40.4731 75.4004 40.4731 75.4004C40.4731 75.4004 40.4731 75.4004 40.4731 75.4004C40.4731 75.4004 40.4731 75.4004 40.4731 75.4004C40.4731 75.4004 40.4731 75.4004 40.4731 75.4004C40.4731 75.4004 40.4731 75.4003 40.4731 75.4003C40.4731 75.4003 40.4731 75.4003 40.4731 75.4003C40.4731 75.4003 40.4731 75.4003 40.4731 75.4003C40.4731 75.4003 40.4731 75.4003 40.4731 75.4003C40.4731 75.4003 40.4731 75.4003 40.4731 75.4003C40.4731 75.4003 40.4731 75.4003 40.4731 75.4003C40.4731 75.4003 40.4731 75.4003 40.4731 75.4003C40.4731 75.4003 40.4731 75.4003 40.4731 75.4003C40.4731 75.4003 40.4731 75.4003 40.4731 75.4003C40.4731 75.4003 40.4731 75.4003 40.4731 75.4003C40.4731 75.4003 40.4731 75.4003 40.4731 75.4003C40.4731 75.4003 40.4731 75.4003 40.4731 75.4003C40.4731 75.4003 40.4731 75.4003 40.4731 75.4003C40.4731 75.4003 40.4731 75.4003 40.4731 75.4003C40.4731 75.4003 40.4731 75.4003 40.4731 75.4003C40.4731 75.4003 40.4731 75.4003 40.4731 75.4003C40.4731 75.4003 40.4731 75.4003 40.4731 75.4003C40.4731 75.4003 40.4731 75.4003 40.4731 75.4003C40.4731 75.4003 40.4731 75.4002 40.4731 75.4002C40.4731 75.4002 40.4731 75.4002 40.4731 75.4002C40.4731 75.4002 40.4731 75.4002 40.4731 75.4002C40.4731 75.4002 40.4731 75.4002 40.4731 75.4002C40.4731 75.4002 40.4731 75.4002 40.4731 75.4002C40.4731 75.4002 40.4731 75.4002 40.4731 75.4002C40.4731 75.4002 40.4731 75.4002 40.4731 75.4002C40.4731 75.4002 40.4731 75.4002 40.4731 75.4002C40.4731 75.4002 40.4731 75.4002 40.4731 75.4002C40.4731 75.4002 40.4731 75.4002 40.4731 75.4002C40.4731 75.4002 40.4731 75.4002 40.4731 75.4002C40.4731 75.4002 40.4731 75.4002 40.4731 75.4002C40.4731 75.4002 40.4731 75.4002 40.4731 75.4002C40.4731 75.4002 40.4731 75.4002 40.4731 75.4002V75.4002C40.4731 75.4002 40.4731 75.4002 40.4731 75.4002V75.4002C40.4731 75.4002 40.4731 75.4002 40.4731 75.4002C40.4731 75.4002 40.4731 75.4002 40.4731 75.4002C40.4731 75.4002 40.4731 75.4002 40.4731 75.4002C40.4731 75.4002 40.4731 75.4002 40.4731 75.4002C40.4731 75.4002 40.4731 75.4002 40.4731 75.4002C40.4731 75.4002 40.4731 75.4002 40.4731 75.4002V75.4002C40.4731 75.4002 40.4731 75.4002 40.4731 75.4002V75.4002V75.4002C39.4731 75.4002 38.4731 75.4002 39.4731 75.4002C40.4731 75.4002 39.4731 75.4002 38.4731 75.4002V75.4002V75.4002C38.4731 75.4002 38.4731 75.4002 38.4731 75.4002V75.4002C38.4731 75.4002 38.4731 75.4002 38.4731 75.4002C38.4731 75.4002 38.4731 75.4002 38.4731 75.4002C38.4731 75.4002 38.4731 75.4002 38.4731 75.4002C38.4731 75.4002 38.4731 75.4002 38.4731 75.4002C38.4731 75.4002 38.4731 75.4002 38.4731 75.4002C38.4731 75.4002 38.4731 75.4002 38.4731 75.4002V75.4002C38.4731 75.4002 38.4731 75.4002 38.4731 75.4002V75.4002C38.4731 75.4002 38.4731 75.4002 38.4731 75.4002C38.4731 75.4002 38.4731 75.4002 38.4731 75.4002C38.4731 75.4002 38.4731 75.4002 38.4731 75.4002C38.4731 75.4002 38.4731 75.4002 38.4731 75.4002C38.4731 75.4002 38.4731 75.4002 38.4731 75.4002C38.4731 75.4002 38.4731 75.4002 38.4731 75.4002C38.4731 75.4002 38.4731 75.4002 38.4731 75.4002C38.4731 75.4002 38.4731 75.4002 38.4731 75.4002C38.4731 75.4002 38.4731 75.4002 38.4731 75.4002C38.4731 75.4002 38.4731 75.4002 38.4731 75.4002C38.4731 75.4002 38.4731 75.4002 38.4731 75.4002C38.4731 75.4002 38.4731 75.4002 38.4731 75.4002C38.4731 75.4002 38.4731 75.4002 38.4731 75.4002C38.4731 75.4002 38.4731 75.4003 38.4731 75.4003C38.4731 75.4003 38.4731 75.4003 38.4731 75.4003C38.4731 75.4003 38.4731 75.4003 38.4731 75.4003C38.4731 75.4003 38.4731 75.4003 38.4731 75.4003C38.4731 75.4003 38.4731 75.4003 38.4731 75.4003C38.4731 75.4003 38.4731 75.4003 38.4731 75.4003C38.4731 75.4003 38.4731 75.4003 38.4731 75.4003C38.4731 75.4003 38.4731 75.4003 38.4731 75.4003C38.4731 75.4003 38.4731 75.4003 38.4731 75.4003C38.4731 75.4003 38.4731 75.4003 38.4731 75.4003C38.4731 75.4003 38.4731 75.4003 38.4731 75.4003C38.4731 75.4003 38.4731 75.4003 38.4731 75.4003C38.4731 75.4003 38.4731 75.4003 38.4731 75.4003C38.4731 75.4003 38.4731 75.4003 38.4731 75.4003C38.4731 75.4003 38.4731 75.4003 38.4731 75.4003C38.4731 75.4003 38.4731 75.4003 38.4731 75.4003C38.4731 75.4003 38.4731 75.4003 38.4731 75.4003C38.4731 75.4003 38.4731 75.4003 38.4731 75.4003C38.4731 75.4003 38.4731 75.4004 38.4731 75.4004C38.4731 75.4004 38.4731 75.4004 38.4731 75.4004C38.4731 75.4004 38.4731 75.4004 38.4731 75.4004C38.4731 75.4004 38.4731 75.4004 38.4731 75.4004C38.4731 75.4004 38.4731 75.4004 38.4731 75.4004C38.4731 75.4004 38.4731 75.4004 38.4731 75.4004C38.4731 75.4004 38.4731 75.4004 38.4731 75.4004C38.4731 75.4004 38.4731 75.4004 38.4731 75.4004C38.4731 75.4004 38.4731 75.4004 38.4731 75.4004C38.4731 75.4004 38.4731 75.4004 38.4731 75.4004C38.4731 75.4004 38.4731 75.4004 38.4731 75.4004C38.4731 75.4004 38.4731 75.4005 38.4731 75.4005C38.4731 75.4005 38.4731 75.4005 38.4731 75.4005C38.4731 75.4005 38.4731 75.4005 38.4731 75.4005C38.4731 75.4005 38.4731 75.4005 38.4731 75.4005C38.4731 75.4005 38.4731 75.4005 38.4731 75.4005C38.4731 75.4005 38.4731 75.4005 38.4731 75.4005C38.4731 75.4005 38.4731 75.4005 38.4731 75.4005C38.4731 75.4005 38.4731 75.4005 38.4731 75.4005C38.4731 75.4005 38.4731 75.4005 38.4731 75.4006C38.4731 75.4006 38.4731 75.4006 38.4731 75.4006C38.4731 75.4006 38.4731 75.4006 38.4731 75.4006C38.4731 75.4006 38.4731 75.4006 38.4731 75.4006C38.4731 75.4006 38.4731 75.4006 38.4731 75.4006C38.4731 75.4006 38.4731 75.4006 38.4731 75.4006C38.4731 75.4006 38.4731 75.4006 38.4731 75.4006C38.4731 75.4006 38.4731 75.4007 38.4731 75.4007C38.4731 75.4007 38.4731 75.4007 38.4731 75.4007C38.4731 75.4007 38.4731 75.4007 38.4731 75.4007C38.4731 75.4007 38.4731 75.4007 38.4731 75.4007C38.4731 75.4007 38.4731 75.4007 38.4731 75.4007C38.4731 75.4007 38.4731 75.4007 38.4731 75.4007C38.4731 75.4007 38.4731 75.4008 38.4731 75.4008C38.4731 75.4008 38.4731 75.4008 38.4731 75.4008C38.4731 75.4008 38.4731 75.4008 38.4731 75.4008C38.4731 75.4008 38.4731 75.4008 38.4731 75.4008C38.4731 75.4008 38.4731 75.4008 38.4731 75.4008C38.4731 75.4008 38.4731 75.4009 38.4731 75.4009C38.4731 75.4009 38.4731 75.4009 38.4731 75.4009C38.4731 75.4009 38.4731 75.4009 38.4731 75.4009C38.4731 75.4009 38.4731 75.4009 38.4731 75.4009C38.4731 75.4009 38.4731 75.4009 38.4731 75.4009C38.4731 75.401 38.4731 75.401 38.4731 75.401C38.4731 75.401 38.4731 75.401 38.4731 75.401C38.4731 75.401 38.4731 75.401 38.4731 75.401C38.4731 75.401 38.4731 75.401 38.4731 75.401C38.4731 75.401 38.4731 75.4011 38.4731 75.4011C38.4731 75.4011 38.4731 75.4011 38.4731 75.4011C38.4731 75.4011 38.4731 75.4011 38.4731 75.4011C38.4731 75.4011 38.4731 75.4011 38.4731 75.4011C38.4731 75.4011 38.4731 75.4012 38.4731 75.4012C38.4731 75.4012 38.4731 75.4012 38.4731 75.4012C38.4731 75.4012 38.4731 75.4012 38.4731 75.4012C38.4731 75.4012 38.4731 75.4012 38.4731 75.4012C38.4731 75.4013 38.4731 75.4013 38.4731 75.4013C38.4731 75.4013 38.4731 75.4013 38.4731 75.4013C38.4731 75.4013 38.4731 75.4013 38.4731 75.4013C38.4731 75.4013 38.4731 75.4014 38.4731 75.4014C38.4731 75.4014 38.4731 75.4014 38.4731 75.4014C38.4731 75.4014 38.4731 75.4014 38.4731 75.4014C38.4731 75.4014 38.4731 75.4014 38.4731 75.4015C38.4731 75.4015 38.4731 75.4015 38.4731 75.4015C38.4731 75.4015 38.4731 75.4015 38.4731 75.4015C38.4731 75.4015 38.4731 75.4015 38.4731 75.4016C38.4731 75.4016 38.4731 75.4016 38.4731 75.4016C38.4731 75.4016 38.4731 75.4016 38.4731 75.4016C38.4731 75.4016 38.4731 75.4016 38.4731 75.4017C38.4731 75.4017 38.4731 75.4017 38.4731 75.4017C38.4731 75.4017 38.4731 75.4017 38.4731 75.4017C38.4731 75.4017 38.4731 75.4017 38.4731 75.4018C38.4731 75.4018 38.4731 75.4018 38.4731 75.4018C38.4731 75.4018 38.4731 75.4018 38.4731 75.4018C38.4731 75.4018 38.4731 75.4019 38.4731 75.4019C38.4731 75.4019 38.4731 75.4019 38.4731 75.4019C38.4731 75.4019 38.4731 75.4019 38.4731 75.402C38.4731 75.402 38.4731 75.402 38.4731 75.402C38.4731 75.402 38.4731 75.402 38.4731 75.402C38.4731 75.402 38.4731 75.4021 38.4731 75.4021C38.4731 75.4021 38.4731 75.4021 38.4731 75.4021C38.4731 75.4021 38.4731 75.4021 38.4731 75.4022C38.4731 75.4022 38.4731 75.4022 38.4731 75.4022C38.4731 75.4022 38.4731 75.4022 38.4731 75.4022C38.4731 75.4023 38.4731 75.4023 38.4731 75.4023C38.4731 75.4023 38.4731 75.4023 38.4731 75.4023C38.4731 75.4023 38.4731 75.4024 38.4731 75.4024C38.4731 75.4024 38.4731 75.4024 38.4731 75.4024C38.4731 75.4024 38.4731 75.4025 38.4731 75.4025C38.4731 75.4025 38.4731 75.4025 38.4731 75.4025C38.4731 75.4025 38.4731 75.4025 38.4731 75.4026C38.4731 75.4026 38.4731 75.4026 38.4731 75.4026C38.4731 75.4026 38.4731 75.4026 38.4731 75.4027C38.4731 75.4027 38.4731 75.4027 38.4731 75.4027C38.4731 75.4027 38.4731 75.4027 38.4731 75.4028C38.4731 75.4028 38.4731 75.4028 38.4731 75.4028C38.4731 75.4028 38.4731 75.4029 38.4731 75.4029C38.4731 75.4029 38.4731 75.4029 38.4731 75.4029C38.4731 75.4029 38.4731 75.403 38.4731 75.403C38.4731 75.403 38.4731 75.403 38.4731 75.403C38.4731 75.403 38.4731 75.4031 38.4731 75.4031C38.4731 75.4031 38.4731 75.4031 38.4731 75.4031C38.4731 75.4032 38.4731 75.4032 38.4731 75.4032C38.4731 75.4032 38.4731 75.4032 38.4731 75.4033C38.4731 75.4033 38.4731 75.4033 38.4731 75.4033C38.4731 75.4033 38.4731 75.4033 38.4731 75.4034C38.4731 75.4034 38.4731 75.4034 38.4731 75.4034C38.4731 75.4034 38.4731 75.4035 38.4731 75.4035C38.4731 75.4035 38.4731 75.4035 38.4731 75.4035C38.4731 75.4036 38.4731 75.4036 38.4731 75.4036C38.4731 75.4036 38.4731 75.4036 38.4731 75.4037C38.4731 75.4037 38.4731 75.4037 38.4731 75.4037C38.4731 75.4038 38.4731 75.4038 38.4731 75.4038C38.4731 75.4038 38.4731 75.4038 38.4731 75.4039C38.4731 75.4039 38.4731 75.4039 38.4731 75.4039C38.4731 75.4039 38.4731 75.404 38.4731 75.404C38.4731 75.404 38.4731 75.404 38.4731 75.4041C38.4731 75.4041 38.4731 75.4041 38.4731 75.4041C38.4731 75.4041 38.4731 75.4042 38.4731 75.4042C38.4731 75.4042 38.4731 75.4042 38.4731 75.4043C38.4731 75.4043 38.4731 75.4043 38.4731 75.4043C38.4731 75.4044 38.4731 75.4044 38.4731 75.4044C38.4731 75.4044 38.4731 75.4044 38.4731 75.4045C38.4731 75.4045 38.4731 75.4045 38.4731 75.4045C38.4731 75.4046 38.4731 75.4046 38.4731 75.4046C38.4731 75.4046 38.4731 75.4047 38.4731 75.4047C38.4731 75.4047 38.4731 75.4047 38.4731 75.4048C38.4731 75.4048 38.4731 75.4048 38.4731 75.4048C38.4731 75.4049 38.4731 75.4049 38.4731 75.4049C38.4731 75.4049 38.4731 75.405 38.4731 75.405C38.4731 75.405 38.4731 75.405 38.4731 75.4051C38.4731 75.4051 38.4731 75.4051 38.4731 75.4052C38.4731 75.4052 38.4731 75.4052 38.4731 75.4052C38.4731 75.4053 38.4731 75.4053 38.4731 75.4053C38.4731 75.4053 38.4731 75.4054 38.4731 75.4054C38.4731 75.4054 38.4731 75.4054 38.4731 75.4055C38.4731 75.4055 38.4731 75.4055 38.4731 75.4056C38.4731 75.4056 38.4731 75.4056 38.4731 75.4056C38.4731 75.4057 38.4731 75.4057 38.4731 75.4057C38.4731 75.4058 38.4731 75.4058 38.4731 75.4058C38.4731 75.4058 38.4731 75.4059 38.4731 75.4059C38.4731 75.4059 38.4731 75.406 38.4731 75.406C38.4731 75.406 38.4731 75.406 38.4731 75.4061C38.4731 75.4061 38.4731 75.4061 38.4731 75.4062C38.4731 75.4062 38.4731 75.4062 38.4731 75.4062C38.4731 75.4063 38.4731 75.4063 38.4731 75.4063C38.4731 75.4064 38.4731 75.4064 38.4731 75.4064C38.4731 75.4065 38.4731 75.4065 38.4731 75.4065C38.4731 75.4066 38.4731 75.4066 38.4731 75.4066C38.4731 75.4066 38.4731 75.4067 38.4731 75.4067C38.4731 75.4067 38.4731 75.4068 38.4731 75.4068C38.4731 75.4068 38.4731 75.4069 38.4731 75.4069C38.4731 75.4069 38.4731 75.407 38.4731 75.407C38.4731 75.407 38.4731 75.4071 38.4731 75.4071C38.4731 75.4071 38.4731 75.4072 38.4731 75.4072C38.4731 75.4072 38.4731 75.4073 38.4731 75.4073C38.4731 75.4073 38.4731 75.4074 38.4731 75.4074C38.4731 75.4074 38.4731 75.4075 38.4731 75.4075C38.4731 75.4075 38.4731 75.4076 38.4731 75.4076C38.4731 75.4076 38.4731 75.4077 38.4731 75.4077C38.4731 75.4077 38.4731 75.4078 38.4731 75.4078C38.4731 75.4078 38.4731 75.4079 38.4731 75.4079C38.4731 75.408 38.4731 75.408 38.4731 75.408C38.4731 75.4081 38.4731 75.4081 38.4731 75.4081C38.4731 75.4082 38.4731 75.4082 38.4731 75.4082C38.4731 75.4083 38.4731 75.4083 38.4731 75.4084C38.4731 75.4084 38.4731 75.4084 38.4731 75.4085C38.4731 75.4085 38.4731 75.4085 38.4731 75.4086C38.4731 75.4086 38.4731 75.4086 38.4731 75.4087C38.4731 75.4087 38.4731 75.4088 38.4731 75.4088C38.4731 75.4088 38.4731 75.4089 38.4731 75.4089C38.4731 75.409 38.4731 75.409 38.4731 75.409C38.4731 75.4091 38.4731 75.4091 38.4731 75.4091C38.4731 75.4092 38.4731 75.4092 38.4731 75.4093C38.4731 75.4093 38.4731 75.4093 38.4731 75.4094C38.4731 75.4094 38.4731 75.4095 38.4731 75.4095C38.4731 75.4095 38.4731 75.4096 38.4731 75.4096C38.4731 75.4097 38.4731 75.4097 38.4731 75.4097C38.4731 75.4098 38.4731 75.4098 38.4731 75.4099C38.4731 75.4099 38.4731 75.41 38.4731 75.41C38.4731 75.41 38.4731 75.4101 38.4731 75.4101C38.4731 75.4102 38.4731 75.4102 38.4731 75.4102C38.4731 75.4103 38.4731 75.4103 38.4731 75.4104C38.4731 75.4104 38.4731 75.4105 38.4731 75.4105C38.4731 75.4105 38.4731 75.4106 38.4731 75.4106C38.4731 75.4107 38.4731 75.4107 38.4731 75.4108C38.4731 75.4108 38.4731 75.4108 38.4731 75.4109C38.4731 75.4109 38.4731 75.411 38.4731 75.411C38.4731 75.4111 38.4731 75.4111 38.4731 75.4112C38.4731 75.4112 38.4731 75.4112 38.4731 75.4113C38.4731 75.4113 38.4731 75.4114 38.4731 75.4114C38.4731 75.4115 38.4731 75.4115 38.4731 75.4116C38.4731 75.4116 38.4731 75.4117 38.4731 75.4117C38.4731 75.4117 38.4731 75.4118 38.4731 75.4118C38.4731 75.4119 38.4731 75.4119 38.4731 75.412C38.4731 75.412 38.4731 75.4121 38.4731 75.4121C38.4731 75.4122 38.4731 75.4122 38.4731 75.4123C38.4731 75.4123 38.4731 75.4124 38.4731 75.4124C38.4731 75.4125 38.4731 75.4125 38.4731 75.4126C38.4731 75.4126 38.4731 75.4127 38.4731 75.4127C38.4731 75.4127 38.4731 75.4128 38.4731 75.4128C38.4731 75.4129 38.4731 75.4129 38.4731 75.413C38.4731 75.413 38.4731 75.4131 38.4731 75.4131C38.4731 75.4132 38.4731 75.4132 38.4731 75.4133C38.4731 75.4133 38.4731 75.4134 38.4731 75.4134C38.4731 75.4135 38.4731 75.4135 38.4731 75.4136C38.4731 75.4136 38.4731 75.4137 38.4731 75.4138C38.4731 75.4138 38.4731 75.4139 38.4731 75.4139C38.4731 75.414 38.4731 75.414 38.4731 75.4141C38.4731 75.4141 38.4731 75.4142 38.4731 75.4142C38.4731 75.4143 38.4731 75.4143 38.4731 75.4144C38.4731 75.4144 38.4731 75.4145 38.4731 75.4145C38.4731 75.4146 38.4731 75.4146 38.4731 75.4147C38.4731 75.4148 38.4731 75.4148 38.4731 75.4149C38.4731 75.4149 38.4731 75.415 38.4731 75.415C38.4731 75.4151 38.4731 75.4151 38.4731 75.4152C38.4731 75.4152 38.4731 75.4153 38.4731 75.4154C38.4731 75.4154 38.4731 75.4155 38.4731 75.4155C38.4731 75.4156 38.4731 75.4156 38.4731 75.4157C38.4731 75.4158 38.4731 75.4158 38.4731 75.4159C38.4731 75.4159 38.4731 75.416 38.4731 75.416C38.4731 75.4161 38.4731 75.4161 38.4731 75.4162C38.4731 75.4163 38.4731 75.4163 38.4731 75.4164C38.4731 75.4164 38.4731 75.4165 38.4731 75.4166C38.4731 75.4166 38.4731 75.4167 38.4731 75.4167C38.4731 75.4168 38.4731 75.4168 38.4731 75.4169C38.4731 75.417 38.4731 75.417 38.4731 75.4171C38.4731 75.4171 38.4731 75.4172 38.4731 75.4173C38.4731 75.4173 38.4731 75.4174 38.4731 75.4174C38.4731 75.4175 38.4731 75.4176 38.4731 75.4176C38.4731 75.4177 38.4731 75.4178 38.4731 75.4178C38.4731 75.4179 38.4731 75.4179 38.4731 75.418C38.4731 75.4181 38.4731 75.4181 38.4731 75.4182C38.4731 75.4182 38.4731 75.4183 38.4731 75.4184C38.4731 75.4184 38.4731 75.4185 38.4731 75.4186C38.4731 75.4186 38.4731 75.4187 38.4731 75.4187C38.4731 75.4188 38.4731 75.4189 38.4731 75.4189C38.4731 75.419 38.4731 75.4191 38.4731 75.4191C38.4731 75.4192 38.4731 75.4193 38.4731 75.4193C38.4731 75.4194 38.4731 75.4195 38.4731 75.4195C38.4731 75.4196 38.4731 75.4197 38.4731 75.4197C38.4731 75.4198 38.4731 75.4198 38.4731 75.4199C38.4731 75.42 38.4731 75.42 38.4731 75.4201C38.4731 75.4202 38.4731 75.4202 38.4731 75.4203C38.4731 75.4204 38.4731 75.4205 38.4731 75.4205C38.4731 75.4206 38.4731 75.4207 38.4731 75.4207C38.4731 75.4208 38.4731 75.4209 38.4731 75.4209C38.4731 75.421 38.4731 75.4211 38.4731 75.4211C38.4731 75.4212 38.4731 75.4213 38.4731 75.4213C38.4731 75.4214 38.4731 75.4215 38.4731 75.4215C38.4731 75.4216 38.4731 75.4217 38.4731 75.4218C38.4731 75.4218 38.4731 75.4219 38.4731 75.422C38.4731 75.422 38.4731 75.4221 38.4731 75.4222C38.4731 75.4223 38.4731 75.4223 38.4731 75.4224C38.4731 75.4225 38.4731 75.4225 38.4731 75.4226C38.4731 75.4227 38.4731 75.4228 38.4731 75.4228C38.4731 75.4229 38.4731 75.423 38.4731 75.423C38.4731 75.4231 38.4731 75.4232 38.4731 75.4233C38.4731 75.4233 38.4731 75.4234 38.4731 75.4235C38.4731 75.4236 38.4731 75.4236 38.4731 75.4237C38.4731 75.4238 38.4731 75.4239 38.4731 75.4239C38.4731 75.424 38.4731 75.4241 38.4731 75.4242C38.4731 75.4242 38.4731 75.4243 38.4731 75.4244C38.4731 75.4245 38.4731 75.4245 38.4731 75.4246C38.4731 75.4247 38.4731 75.4248 38.4731 75.4248C38.4731 75.4249 38.4731 75.425 38.4731 75.4251C38.4731 75.4252 38.4731 75.4252 38.4731 75.4253C38.4731 75.4254 38.4731 75.4255 38.4731 75.4255C38.4731 75.4256 38.4731 75.4257 38.4731 75.4258C38.4731 75.4259 38.4731 75.4259 38.4731 75.426C38.4731 75.4261 38.4731 75.4262 38.4731 75.4263C38.4731 75.4263 38.4731 75.4264 38.4731 75.4265C38.4731 75.4266 38.4731 75.4267 38.4731 75.4267C38.4731 75.4268 38.4731 75.4269 38.4731 75.427C38.4731 75.4271 38.4731 75.4271 38.4731 75.4272C38.4731 75.4273 38.4731 75.4274 38.4731 75.4275C38.4731 75.4275 38.4731 75.4276 38.4731 75.4277C38.4731 75.4278 38.4731 75.4279 38.4731 75.428C38.4731 75.428 38.4731 75.4281 38.4731 75.4282C38.4731 75.4283 38.4731 75.4284 38.4731 75.4285C38.4731 75.4285 38.4731 75.4286 38.4731 75.4287C38.4731 75.4288 38.4731 75.4289 38.4731 75.429C38.4731 75.4291 38.4731 75.4291 38.4731 75.4292C38.4731 75.4293 38.4731 75.4294 38.4731 75.4295C38.4731 75.4296 38.4731 75.4297 38.4731 75.4297C38.4731 75.4298 38.4731 75.4299 38.4731 75.43C38.4731 75.4301 38.4731 75.4302 38.4731 75.4303C38.4731 75.4304 38.4731 75.4304 38.4731 75.4305C38.4731 75.4306 38.4731 75.4307 38.4731 75.4308C38.4731 75.4309 38.4731 75.431 38.4731 75.4311C38.4731 75.4311 38.4731 75.4312 38.4731 75.4313C38.4731 75.4314 38.4731 75.4315 38.4731 75.4316C38.4731 75.4317 38.4731 75.4318 38.4731 75.4319C38.4731 75.432 38.4731 75.4321 38.4731 75.4321C38.4731 75.4322 38.4731 75.4323 38.4731 75.4324C38.4731 75.4325 38.4731 75.4326 38.4731 75.4327C38.4731 75.4328 38.4731 75.4329 38.4731 75.433C38.4731 75.4331 38.4731 75.4332 38.4731 75.4333C38.4731 75.4333 38.4731 75.4334 38.4731 75.4335C38.4731 75.4336 38.4731 75.4337 38.4731 75.4338C38.4731 75.4339 38.4731 75.434 38.4731 75.4341C38.4731 75.4342 38.4731 75.4343 38.4731 75.4344C38.4731 75.4345 38.4731 75.4346 38.4731 75.4347C38.4731 75.4348 38.4731 75.4349 38.4731 75.435C38.4731 75.4351 38.4731 75.4352 38.4731 75.4353C38.4731 75.4353 38.4731 75.4354 38.4731 75.4355C38.4731 75.4356 38.4731 75.4357 38.4731 75.4358C38.4731 75.4359 38.4731 75.436 38.4731 75.4361C38.4731 75.4362 38.4731 75.4363 38.4731 75.4364C38.4731 75.4365 38.4731 75.4366 38.4731 75.4367C38.4731 75.4368 38.4731 75.4369 38.4731 75.437C38.4731 75.4371 38.4731 75.4372 38.4731 75.4373C38.4731 75.4374 38.4731 75.4375 38.4731 75.4376C38.4731 75.4377 38.4731 75.4378 38.4731 75.4379C38.4731 75.438 38.4731 75.4381 38.4731 75.4382C38.4731 75.4383 38.4731 75.4384 38.4731 75.4386C38.4731 75.4387 38.4731 75.4388 38.4731 75.4389C38.4731 75.439 38.4731 75.4391 38.4731 75.4392C38.4731 75.4393 38.4731 75.4394 38.4731 75.4395C38.4731 75.4396 38.4731 75.4397 38.4731 75.4398C38.4731 75.4399 38.4731 75.44 38.4731 75.4401C38.4731 75.4402 38.4731 75.4403 38.4731 75.4404C38.4731 75.4405 38.4731 75.4407 38.4731 75.4408C38.4731 75.4409 38.4731 75.441 38.4731 75.4411C38.4731 75.4412 38.4731 75.4413 38.4731 75.4414C38.4731 75.4415 38.4731 75.4416 38.4731 75.4417C38.4731 75.4418 38.4731 75.4419 38.4731 75.4421C38.4731 75.4422 38.4731 75.4423 38.4731 75.4424C38.4731 75.4425 38.4731 75.4426 38.4731 75.4427C38.4731 75.4428 38.4731 75.4429 38.4731 75.443C38.4731 75.4432 38.4731 75.4433 38.4731 75.4434C38.4731 75.4435 38.4731 75.4436 38.4731 75.4437C38.4731 75.4438 38.4731 75.4439 38.4731 75.4441C38.4731 75.4442 38.4731 75.4443 38.4731 75.4444C38.4731 75.4445 38.4731 75.4446 38.4731 75.4447C38.4731 75.4448 38.4731 75.445 38.4731 75.4451C38.4731 75.4452 38.4731 75.4453 38.4731 75.4454C38.4731 75.4455 38.4731 75.4457 38.4731 75.4458C38.4731 75.4459 38.4731 75.446 38.4731 75.4461C38.4731 75.4462 38.4731 75.4463 38.4731 75.4465C38.4731 75.4466 38.4731 75.4467 38.4731 75.4468C38.4731 75.4469 38.4731 75.4471 38.4731 75.4472C38.4731 75.4473 38.4731 75.4474 38.4731 75.4475C38.4731 75.4476 38.4731 75.4478 38.4731 75.4479C38.4731 75.448 38.4731 75.4481 38.4731 75.4482C38.4731 75.4484 38.4731 75.4485 38.4731 75.4486C38.4731 75.4487 38.4731 75.4488 38.4731 75.449C38.4731 75.4491 38.4731 75.4492 38.4731 75.4493C38.4731 75.4494 38.4731 75.4496 38.4731 75.4497C38.4731 75.4498 38.4731 75.4499 38.4731 75.4501C38.4731 75.4502 38.4731 75.4503 38.4731 75.4504C38.4731 75.4506 38.4731 75.4507 38.4731 75.4508C38.4731 75.4509 38.4731 75.451 38.4731 75.4512C38.4731 75.4513 38.4731 75.4514 38.4731 75.4515C38.4731 75.4517 38.4731 75.4518 38.4731 75.4519C38.4731 75.4521 38.4731 75.4522 38.4731 75.4523C38.4731 75.4524 38.4731 75.4526 38.4731 75.4527C38.4731 75.4528 38.4731 75.4529 38.4731 75.4531C38.4731 75.4532 38.4731 75.4533 38.4731 75.4535C38.4731 75.4536 38.4731 75.4537 38.4731 75.4538C38.4731 75.454 38.4731 75.4541 38.4731 75.4542C38.4731 75.4544 38.4731 75.4545 38.4731 75.4546C38.4731 75.4547 38.4731 75.4549 38.4731 75.455C38.4731 75.4551 38.4731 75.4553 38.4731 75.4554C38.4731 75.4555 38.4731 75.4557 38.4731 75.4558C38.4731 75.4559 38.4731 75.4561 38.4731 75.4562C38.4731 75.4563 38.4731 75.4565 38.4731 75.4566C38.4731 75.4567 38.4731 75.4569 38.4731 75.457C38.4731 75.4571 38.4731 75.4573 38.4731 75.4574C38.4731 75.4575 38.4731 75.4577 38.4731 75.4578C38.4731 75.4579 38.4731 75.4581 38.4731 75.4582C38.4731 75.4583 38.4731 75.4585 38.4731 75.4586C38.4731 75.4587 38.4731 75.4589 38.4731 75.459C38.4731 75.4592 38.4731 75.4593 38.4731 75.4594C38.4731 75.4596 38.4731 75.4597 38.4731 75.4599C38.4731 75.46 38.4731 75.4601 38.4731 75.4603C38.4731 75.4604 38.4731 75.4605 38.4731 75.4607C38.4731 75.4608 38.4731 75.461 38.4731 75.4611C38.4731 75.4612 38.4731 75.4614 38.4731 75.4615C38.4731 75.4617 38.4731 75.4618 38.4731 75.462C38.4731 75.4621 38.4731 75.4622 38.4731 75.4624C38.4731 75.4625 38.4731 75.4627 38.4731 75.4628C38.4731 75.4629 38.4731 75.4631 38.4731 75.4632C38.4731 75.4634 38.4731 75.4635 38.4731 75.4637C38.4731 75.4638 38.4731 75.464 38.4731 75.4641C38.4731 75.4642 38.4731 75.4644 38.4731 75.4645C38.4731 75.4647 38.4731 75.4648 38.4731 75.465C38.4731 75.4651 38.4731 75.4653 38.4731 75.4654C38.4731 75.4656 38.4731 75.4657 38.4731 75.4659C38.4731 75.466 38.4731 75.4661 38.4731 75.4663C38.4731 75.4664 38.4731 75.4666 38.4731 75.4667C38.4731 75.4669 38.4731 75.467 38.4731 75.4672C38.4731 75.4673 38.4731 75.4675 38.4731 75.4676C38.4731 75.4678 38.4731 75.4679 38.4731 75.4681C38.4731 75.4682 38.4731 75.4684 38.4731 75.4685C38.4731 75.4687 38.4731 75.4688 38.4731 75.469C38.4731 75.4692 38.4731 75.4693 38.4731 75.4695C38.4731 75.4696 38.4731 75.4698 38.4731 75.4699C38.4731 75.4701 38.4731 75.4702 38.4731 75.4704C38.4731 75.4705 38.4731 75.4707 38.4731 75.4708C38.4731 75.471 38.4731 75.4712 38.4731 75.4713C38.4731 75.4715 38.4731 75.4716 38.4731 75.4718C38.4731 75.4719 38.4731 75.4721 38.4731 75.4722C38.4731 75.4724 38.4731 75.4726 38.4731 75.4727C38.4731 75.4729 38.4731 75.473 38.4731 75.4732C38.4731 75.4734 38.4731 75.4735 38.4731 75.4737C38.4731 75.4738 38.4731 75.474 38.4731 75.4741C38.4731 75.4743 38.4731 75.4745 38.4731 75.4746C38.4731 75.4748 38.4731 75.4749 38.4731 75.4751C38.4731 75.4753 38.4731 75.4754 38.4731 75.4756C38.4731 75.4758 38.4731 75.4759 38.4731 75.4761C38.4731 75.4762 38.4731 75.4764 38.4731 75.4766C38.4731 75.4767 38.4731 75.4769 38.4731 75.4771C38.4731 75.4772 38.4731 75.4774 38.4731 75.4776C38.4731 75.4777 38.4731 75.4779 38.4731 75.478C38.4731 75.4782 38.4731 75.4784 38.4731 75.4785C38.4731 75.4787 38.4731 75.4789 38.4731 75.479C38.4731 75.4792 38.4731 75.4794 38.4731 75.4795C38.4731 75.4797 38.4731 75.4799 38.4731 75.48C38.4731 75.4802 38.4731 75.4804 38.4731 75.4806C38.4731 75.4807 38.4731 75.4809 38.4731 75.4811C38.4731 75.4812 38.4731 75.4814 38.4731 75.4816C38.4731 75.4817 38.4731 75.4819 38.4731 75.4821C38.4731 75.4823 38.4731 75.4824 38.4731 75.4826C38.4731 75.4828 38.4731 75.4829 38.4731 75.4831C38.4731 75.4833 38.4731 75.4835 38.4731 75.4836C38.4731 75.4838 38.4731 75.484 38.4731 75.4842C38.4731 75.4843 38.4731 75.4845 38.4731 75.4847C38.4731 75.4848 38.4731 75.485 38.4731 75.4852C38.4731 75.4854 38.4731 75.4855 38.4731 75.4857C38.4731 75.4859 38.4731 75.4861 38.4731 75.4863C38.4731 75.4864 38.4731 75.4866 38.4731 75.4868C38.4731 75.487 38.4731 75.4871 38.4731 75.4873C38.4731 75.4875 38.4731 75.4877 38.4731 75.4879C38.4731 75.488 38.4731 75.4882 38.4731 75.4884C38.4731 75.4886 38.4731 75.4888 38.4731 75.4889C38.4731 75.4891 38.4731 75.4893 38.4731 75.4895C38.4731 75.4897 38.4731 75.4898 38.4731 75.49C38.4731 75.4902 38.4731 75.4904 38.4731 75.4906C38.4731 75.4907 38.4731 75.4909 38.4731 75.4911C38.4731 75.4913 38.4731 75.4915 38.4731 75.4917C38.4731 75.4918 38.4731 75.492 38.4731 75.4922C38.4731 75.4924 38.4731 75.4926 38.4731 75.4928C38.4731 75.493 38.4731 75.4931 38.4731 75.4933C38.4731 75.4935 38.4731 75.4937 38.4731 75.4939C38.4731 75.4941 38.4731 75.4943 38.4731 75.4945C38.4731 75.4946 38.4731 75.4948 38.4731 75.495C38.4731 75.4952 38.4731 75.4954 38.4731 75.4956C38.4731 75.4958 38.4731 75.496 38.4731 75.4962C38.4731 75.4963 38.4731 75.4965 38.4731 75.4967C38.4731 75.4969 38.4731 75.4971 38.4731 75.4973C38.4731 75.4975 38.4731 75.4977 38.4731 75.4979C38.4731 75.4981 38.4731 75.4983 38.4731 75.4985C38.4731 75.4986 38.4731 75.4988 38.4731 75.499C38.4731 75.4992 38.4731 75.4994 38.4731 75.4996C38.4731 75.4998 38.4731 75.5 38.4731 75.5002H40.4731ZM40.4611 75.2458L39.9611 72.0458L37.9851 72.3546L38.4851 75.5546L40.4611 75.2458ZM39.6802 72.9073L41.9802 70.6073L40.566 69.1931L38.266 71.4931L39.6802 72.9073ZM41.9802 69.1931C42.0876 69.3005 42.1458 69.4129 42.1767 69.4929C42.2065 69.5699 42.2165 69.6305 42.2199 69.6557C42.2236 69.6824 42.2236 69.6969 42.2234 69.6891C42.2232 69.6809 42.2231 69.669 42.2231 69.6377C42.2231 69.5906 42.224 69.4772 42.211 69.3568C42.1977 69.2335 42.1652 69.0483 42.0675 68.853L40.2786 69.7474C40.231 69.6521 40.2234 69.5794 40.2226 69.5717C40.2221 69.567 40.2231 69.5723 40.2231 69.6377C40.2231 69.6739 40.2211 69.8018 40.2387 69.929C40.2547 70.045 40.308 70.3494 40.566 70.6073L41.9802 69.1931Z" fill="#029452" mask="url(#path-2-outside-1_1893_11745)"/>
<g clip-path="url(#clip0_1893_11745)">
<path d="M55.473 36.8492V28.7492H51.573C51.173 27.0492 50.473 25.5492 49.673 24.0492L52.373 21.3492L46.673 15.6492L43.973 18.3492C42.573 17.4492 40.973 16.8492 39.273 16.4492V12.4492H31.173V16.3492C29.473 16.7492 27.973 17.4492 26.473 18.2492L23.673 15.5492L17.973 21.2492L20.673 23.9492C19.773 25.3492 19.173 26.9492 18.773 28.6492H14.873V36.7492H18.773C19.173 38.4492 19.873 39.9492 20.673 41.4492L17.973 44.1492L23.673 49.8492L26.373 47.1492C27.773 48.0492 29.373 48.6492 31.073 49.0492V52.9492H39.173V49.0492C40.873 48.6492 42.373 47.9492 43.873 47.1492L46.573 49.8492L52.273 44.1492L49.573 41.4492C50.473 40.0492 51.073 38.4492 51.473 36.7492H55.473V36.8492Z" fill="#C5E1E6"/>
<path d="M39.273 54.1496H31.173C30.573 54.1496 30.073 53.6496 30.073 53.0496V50.0496C28.873 49.7496 27.773 49.2496 26.673 48.6496L24.573 50.7496C24.373 50.9496 24.073 51.0496 23.773 51.0496C23.473 51.0496 23.173 50.9496 22.973 50.7496L17.273 45.0496C17.073 44.8496 16.973 44.5496 16.973 44.2496C16.973 43.9496 17.073 43.6496 17.273 43.4496L19.373 41.3496C18.773 40.2496 18.373 39.1496 17.973 37.9496H14.973C14.373 37.9496 13.873 37.4496 13.873 36.8496V28.7496C13.873 28.1496 14.373 27.6496 14.973 27.6496H17.973C18.273 26.4496 18.773 25.3496 19.373 24.2496L17.273 22.1496C16.773 21.6496 16.773 20.9496 17.173 20.4496L22.873 14.7496C23.273 14.3496 24.073 14.3496 24.473 14.7496L26.573 16.8496C27.673 16.2496 28.773 15.8496 29.973 15.4496V12.4496C29.973 11.8496 30.473 11.3496 31.073 11.3496H39.173C39.773 11.3496 40.273 11.8496 40.273 12.4496V15.4496C41.473 15.7496 42.573 16.2496 43.673 16.8496L45.773 14.7496C45.973 14.5496 46.273 14.4496 46.573 14.4496C46.873 14.4496 47.173 14.5496 47.373 14.7496L53.073 20.4496C53.473 20.8496 53.473 21.6496 53.073 22.0496L50.973 24.1496C51.573 25.2496 51.973 26.3496 52.373 27.5496H55.373C55.973 27.5496 56.473 28.0496 56.473 28.6496V36.7496C56.473 37.3496 55.973 37.8496 55.373 37.8496H52.373C52.073 39.0496 51.573 40.1496 50.973 41.2496L53.073 43.3496C53.473 43.7496 53.473 44.5496 53.073 44.9496L47.373 50.6496C47.173 50.8496 46.873 50.9496 46.573 50.9496C46.273 50.9496 45.973 50.8496 45.773 50.6496L43.673 48.5496C42.573 49.1496 41.473 49.5496 40.273 49.9496V52.9496C40.373 53.6496 39.873 54.1496 39.273 54.1496ZM32.273 51.9496H38.173V49.2496C38.173 48.7496 38.573 48.2496 39.073 48.1496C40.573 47.7496 42.073 47.1496 43.473 46.3496C43.873 46.0496 44.473 46.1496 44.873 46.5496L46.773 48.4496L50.873 44.3496L48.973 42.4496C48.573 42.0496 48.573 41.5496 48.773 41.0496C49.573 39.6496 50.173 38.2496 50.573 36.6496C50.673 36.1496 51.173 35.7496 51.673 35.7496H54.373V29.8496H51.673C51.173 29.8496 50.673 29.4496 50.573 28.9496C50.173 27.4496 49.573 25.9496 48.773 24.5496C48.473 24.1496 48.573 23.5496 48.973 23.1496L50.773 21.2496L46.673 17.1496L44.773 19.0496C44.373 19.4496 43.873 19.4496 43.373 19.2496C41.973 18.4496 40.573 17.8496 38.973 17.4496C38.473 17.3496 38.073 16.8496 38.073 16.3496V13.6496H32.173V16.3496C32.173 16.8496 31.773 17.3496 31.273 17.4496C29.773 17.8496 28.273 18.4496 26.873 19.2496C26.473 19.5496 25.873 19.4496 25.473 19.0496L23.673 17.1496L19.573 21.2496L21.473 23.1496C21.873 23.5496 21.873 24.0496 21.673 24.5496C20.873 25.9496 20.273 27.3496 19.873 28.9496C19.773 29.4496 19.273 29.8496 18.773 29.8496H16.073V35.7496H18.773C19.273 35.7496 19.773 36.1496 19.873 36.6496C20.273 38.1496 20.873 39.6496 21.673 41.0496C21.973 41.4496 21.873 42.0496 21.473 42.4496L19.573 44.3496L23.673 48.3496L25.573 46.4496C25.973 46.0496 26.473 46.0496 26.973 46.2496C28.373 47.0496 29.773 47.6496 31.373 48.0496C31.873 48.1496 32.273 48.6496 32.273 49.1496V51.9496Z" fill="black"/>
<path d="M42.173 38.3494C41.873 38.3494 41.573 38.2494 41.373 38.0494C40.973 37.6494 40.973 36.8494 41.373 36.4494L45.073 32.7494L41.373 29.0494C40.973 28.6494 40.973 27.8494 41.373 27.4494C41.773 27.0494 42.573 27.0494 42.973 27.4494L47.473 31.9494C47.873 32.3494 47.873 33.1494 47.473 33.5494L42.973 38.0494C42.773 38.2494 42.473 38.3494 42.173 38.3494Z" fill="black"/>
<path d="M28.173 38.3494C27.873 38.3494 27.573 38.2494 27.373 38.0494L22.873 33.5494C22.473 33.1494 22.473 32.3494 22.873 31.9494L27.373 27.4494C27.773 27.0494 28.573 27.0494 28.973 27.4494C29.373 27.8494 29.373 28.6494 28.973 29.0494L25.273 32.7494L28.973 36.4494C29.373 36.8494 29.373 37.6494 28.973 38.0494C28.773 38.2494 28.473 38.3494 28.173 38.3494Z" fill="black"/>
<path d="M32.0729 38.3494C31.8729 38.3494 31.6729 38.2494 31.4729 38.1494C30.9729 37.7494 30.8729 37.0494 31.1729 36.5494L37.3729 27.6494C37.7729 27.1494 38.4729 27.0494 38.9729 27.3494C39.4729 27.7494 39.5729 28.4494 39.2729 28.9494L33.0729 37.8494C32.7729 38.1494 32.4729 38.3494 32.0729 38.3494Z" fill="black"/>
</g>
<defs>
<clipPath id="clip0_1893_11745">
<rect width="42.8" height="42.8" fill="white" transform="translate(13.7729 11.3496)"/>
</clipPath>
</defs>
</svg>
